<?xml version="1.0" encoding="UTF-8"?>
<svg version="1.1" xmlns="http://www.w3.org/2000/svg" width="128" height="128">
<path d="M0 0 C2 2 2 2 2.23046875 4.12890625 C2.21628906 4.93199219 2.20210937 5.73507813 2.1875 6.5625 C2.18105469 7.36816406 2.17460938 8.17382812 2.16796875 9.00390625 C2 11 2 11 1 12 C-1.27983876 12.53092135 -3.57194084 12.96317971 -5.87109375 13.40234375 C-8.1932658 13.86682043 -8.1932658 13.86682043 -10 16 C-10.32049669 18.01517281 -10.32049669 18.01517281 -10.30859375 20.32421875 C-10.33373047 21.18853516 -10.35886719 22.05285156 -10.38476562 22.94335938 C-10.4195453 24.75319082 -10.45087268 26.56309236 -10.47851562 28.37304688 C-10.66893716 34.64766871 -11.21767162 39.91980678 -15.60546875 44.77734375 C-17.80273438 46.38867188 -17.80273438 46.38867188 -20 48 C-19.2575 48.495 -18.515 48.99 -17.75 49.5 C-13.10458028 53.72310884 -10.86988245 58.51628839 -10.4609375 64.796875 C-10.41385171 66.4474937 -10.38536896 68.0987424 -10.375 69.75 C-10.34939744 71.41160597 -10.31583016 73.0731126 -10.2734375 74.734375 C-10.26449463 75.82057129 -10.26449463 75.82057129 -10.25537109 76.92871094 C-9.9585903 79.3358699 -9.2785035 80.94633636 -8 83 C-6.10923614 83.62386231 -6.10923614 83.62386231 -4 83.625 C-0.19305019 83.80694981 -0.19305019 83.80694981 2 86 C2.23046875 88.12890625 2.23046875 88.12890625 2.1875 90.5625 C2.18105469 91.36816406 2.17460938 92.17382812 2.16796875 93.00390625 C2 95 2 95 1 96 C-7.04015379 96.87248922 -13.47101781 96.74652694 -20.23046875 92.09375 C-26.14031746 85.10108133 -25.42019544 76.48829425 -25.3515625 67.86914062 C-25.42011777 61.94799122 -25.42011777 61.94799122 -28.36328125 56.90625 C-30.8731464 55.09171046 -33.05318442 53.92614204 -36 53 C-36 49.7 -36 46.4 -36 43 C-34.906875 42.7525 -33.81375 42.505 -32.6875 42.25 C-28.76475988 40.92025759 -27.97871223 40.46031325 -26 37 C-25.57924379 34.42851377 -25.57924379 34.42851377 -25.6640625 31.640625 C-25.65117187 30.60679688 -25.63828125 29.57296875 -25.625 28.5078125 C-25.625 26.35154835 -25.63269876 24.19526921 -25.6484375 22.0390625 C-25.54620901 15.17271579 -24.72389937 10.20444803 -20 5 C-13.85745108 0.180774 -7.51356705 -0.36951969 0 0 Z " fill="#0677CA" transform="translate(55,16)"/>
<path d="M0 0 C6.9023483 0.18824586 13.56073471 2.29230043 18.4375 7.3125 C22.79906321 13.77015427 21.84285757 21.1527674 21.7890625 28.63476562 C21.80611678 35.00798404 21.80611678 35.00798404 24.80078125 40.4765625 C27.30822449 42.22248594 29.52794602 43.39806875 32.4375 44.3125 C32.4375 47.2825 32.4375 50.2525 32.4375 53.3125 C31.79941406 53.49425781 31.16132812 53.67601562 30.50390625 53.86328125 C29.26447266 54.24033203 29.26447266 54.24033203 28 54.625 C27.17628906 54.86863281 26.35257813 55.11226562 25.50390625 55.36328125 C24.82199219 55.67652344 24.14007813 55.98976562 23.4375 56.3125 C22.45382151 59.26353548 22.28648625 61.30867508 22.2265625 64.390625 C22.18402344 65.88529297 22.18402344 65.88529297 22.140625 67.41015625 C22.08893313 69.49592304 22.04454857 71.58188495 22.0078125 73.66796875 C21.77772068 81.11719143 20.97508479 86.22624823 16.125 92.125 C9.96709184 97.13725082 3.07405654 96.8231873 -4.5625 96.3125 C-6.15144072 94.72355928 -5.73248411 93.06448576 -5.75 90.875 C-5.76417969 90.07191406 -5.77835937 89.26882812 -5.79296875 88.44140625 C-5.5625 86.3125 -5.5625 86.3125 -3.5625 84.3125 C-1.24076495 83.73739132 1.08188348 83.3615056 3.44140625 82.97265625 C4.10011719 82.75480469 4.75882813 82.53695312 5.4375 82.3125 C6.34139796 79.60080611 6.57039239 77.93786121 6.61328125 75.14453125 C6.64905273 73.92733398 6.64905273 73.92733398 6.68554688 72.68554688 C6.72801782 70.99829199 6.75953489 69.3107205 6.77929688 67.62304688 C7.02133026 60.48024759 8.87381779 55.16103579 13.6875 49.8125 C14.265 49.3175 14.8425 48.8225 15.4375 48.3125 C14.2928125 47.2915625 14.2928125 47.2915625 13.125 46.25 C7.5769398 40.18584117 7.00310384 34.4561365 6.875 26.5625 C6.84053326 24.88001267 6.79791022 23.19766739 6.74609375 21.515625 C6.72760376 20.41202637 6.72760376 20.41202637 6.70874023 19.28613281 C6.53986021 16.99343688 6.53986021 16.99343688 4.4375 14.3125 C2.28465094 13.55421621 2.28465094 13.55421621 -0.125 13.1875 C-4.48226517 12.39273483 -4.48226517 12.39273483 -5.5625 11.3125 C-5.73046875 9.31640625 -5.73046875 9.31640625 -5.75 6.875 C-5.76417969 6.07191406 -5.77835937 5.26882812 -5.79296875 4.44140625 C-5.36523647 0.49031995 -3.74038365 0.32810383 0 0 Z " fill="#0677CA" transform="translate(77.5625,15.6875)"/>
<path d="M0 0 C0 3 0 3 -2 5.1875 C-2.66 5.785625 -3.32 6.38375 -4 7 C-4.66 6.67 -5.32 6.34 -6 6 C-2.25 1.125 -2.25 1.125 0 0 Z " fill="#187DCA" transform="translate(38,19)"/>
</svg>
